<svg width="66" height="67" viewBox="0 0 66 67" fill="none" xmlns="http://www.w3.org/2000/svg">
<path d="M30.7196 56.8757L47.6763 51.9176C56.197 49.4261 56.7252 45.5673 55.9556 41.2828L52.5871 23.8613C51.6472 18.5222 48.9301 14.7381 39.8795 17.3845L18.6837 23.5822C9.63312 26.2286 9.38275 30.8804 11.4673 35.8849L18.0151 52.3767C19.675 56.4009 22.1989 59.3672 30.7196 56.8757Z" stroke="#FF9B3E" stroke-width="3.3125" stroke-miterlimit="10" stroke-linecap="round" stroke-linejoin="round"/>
<path d="M20.8031 22.9625L20.3072 21.2668C19.2102 17.5152 18.324 14.4842 25.1066 12.5009L28.498 11.5093C35.2806 9.52604 36.1669 12.557 37.2639 16.3087L37.7597 18.0044" stroke="#FF9B3E" stroke-width="3.3125" stroke-miterlimit="10" stroke-linecap="round" stroke-linejoin="round"/>
<path d="M37.8588 34.0809L38.4786 36.2005C38.4848 36.2217 38.4848 36.2217 38.491 36.2429C39.1665 38.5532 39.6969 40.4459 35.479 41.6792C31.2822 42.9064 30.6944 41.0535 30.0189 38.7432L29.3805 36.56C28.7607 34.4404 28.7607 34.4404 30.8803 33.8207L35.1195 32.5811C37.2391 31.9614 37.2391 31.9614 37.8588 34.0809Z" stroke="#FF9B3E" stroke-width="3.3125" stroke-miterlimit="10" stroke-linecap="round" stroke-linejoin="round"/>
<path d="M52.8342 25.1004C48.9792 30.093 44.0032 33.8488 38.4911 36.2428" stroke="#FF9B3E" stroke-width="3.3125" stroke-miterlimit="10" stroke-linecap="round" stroke-linejoin="round"/>
<path d="M12.6663 37.4669C18.3898 39.3366 24.3499 39.7336 30.0193 38.7431" stroke="#FF9B3E" stroke-width="3.3125" stroke-miterlimit="10" stroke-linecap="round" stroke-linejoin="round"/>
</svg>
