<svg width="37" height="37" viewBox="0 5 39 37" fill="none" xmlns="http://www.w3.org/2000/svg">
<mask id="mask0_141_930" style="mask-type:luminance" maskUnits="userSpaceOnUse" x="7" y="5" width="23" height="23">
<path d="M29.1535 5.5498H7.3418V27.3615H29.1535V5.5498Z" fill="white"/>
</mask>
<g mask="url(#mask0_141_930)">
<path d="M12.2806 7.9154C12.2806 9.22191 11.3291 10.281 9.76487 10.281C8.29329 10.279 7.3418 9.22191 7.3418 7.9154C7.3418 6.60891 8.32352 5.5498 9.82737 5.5498C11.3312 5.5498 12.2504 6.57618 12.2806 7.9154ZM7.46475 27.3615V12.1456H12.1274V27.3615H7.46475Z" fill="white"/>
<path d="M14.9197 17C14.9197 15.1027 14.8594 13.5161 14.7969 12.1462H18.8467L19.0624 14.2624H19.1551C19.768 13.2666 21.2719 11.8047 23.7877 11.8047C26.8557 11.8047 29.1558 13.8902 29.1558 18.37V27.3621H24.4931V18.9301C24.4931 16.9693 23.8178 15.6323 22.1306 15.6323C20.8425 15.6323 20.0764 16.5338 19.7377 17.4048C19.6148 17.7156 19.5845 18.1511 19.5845 18.5866V27.36H14.9218V17H14.9197Z" fill="white"/>
</g>
</svg>
