<svg width="26" height="26" viewBox="0 0 26 26" fill="none" xmlns="http://www.w3.org/2000/svg">
<path d="M8.839 13.0638C8.839 10.7607 10.705 8.89314 13.0075 8.89314C15.31 8.89314 17.177 10.7607 17.177 13.0638C17.177 15.367 15.31 17.2346 13.0075 17.2346C10.705 17.2346 8.839 15.367 8.839 13.0638ZM6.58505 13.0638C6.58505 16.612 9.46037 19.4882 13.0075 19.4882C16.5546 19.4882 19.43 16.612 19.43 13.0638C19.43 9.51569 16.5546 6.63954 13.0075 6.63954C9.46037 6.63954 6.58505 9.51569 6.58505 13.0638ZM18.1833 6.38481C18.1832 6.68175 18.2711 6.97205 18.4359 7.21901C18.6007 7.46597 18.8351 7.65849 19.1093 7.77224C19.3835 7.88598 19.6853 7.91583 19.9764 7.85802C20.2676 7.8002 20.5351 7.65732 20.7451 7.44744C20.9551 7.23756 21.0981 6.97011 21.1561 6.6789C21.2142 6.38769 21.1846 6.08581 21.0711 5.81143C20.9576 5.53706 20.7653 5.3025 20.5186 5.13743C20.2718 4.97237 19.9817 4.8842 19.6848 4.88408H19.6842C19.2863 4.88427 18.9047 5.04242 18.6233 5.3238C18.3419 5.60519 18.1836 5.9868 18.1833 6.38481ZM7.95447 23.2476C6.73504 23.192 6.07224 22.9889 5.63178 22.8172C5.04783 22.5898 4.63118 22.319 4.19311 21.8814C3.75505 21.4438 3.48389 21.0274 3.25755 20.4433C3.08585 20.0029 2.88273 19.3397 2.8273 18.1199C2.76666 16.8012 2.75455 16.405 2.75455 13.0639C2.75455 9.72288 2.76766 9.32783 2.8273 8.00796C2.88283 6.78817 3.08745 6.12628 3.25755 5.68459C3.48489 5.10047 3.75565 4.6837 4.19311 4.24551C4.63058 3.80733 5.04683 3.53608 5.63178 3.30968C6.07204 3.13793 6.73504 2.93475 7.95447 2.8793C9.27286 2.81865 9.6689 2.80654 13.0075 2.80654C16.3461 2.80654 16.7425 2.81965 18.062 2.8793C19.2815 2.93485 19.9432 3.13953 20.3847 3.30968C20.9687 3.53608 21.3853 3.80793 21.8234 4.24551C22.2614 4.6831 22.5316 5.10047 22.7589 5.68459C22.9307 6.12498 23.1338 6.78817 23.1892 8.00796C23.2498 9.32783 23.2619 9.72288 23.2619 13.0639C23.2619 16.405 23.2498 16.8001 23.1892 18.1199C23.1337 19.3397 22.9296 20.0027 22.7589 20.4433C22.5316 21.0274 22.2608 21.4442 21.8234 21.8814C21.3859 22.3186 20.9687 22.5898 20.3847 22.8172C19.9445 22.989 19.2815 23.1921 18.062 23.2476C16.7436 23.3082 16.3476 23.3204 13.0075 23.3204C9.6674 23.3204 9.27246 23.3082 7.95447 23.2476ZM7.85091 0.628502C6.51941 0.689156 5.60956 0.900343 4.81499 1.20962C3.99209 1.529 3.29548 1.95748 2.59936 2.6527C1.90324 3.34792 1.47599 4.04584 1.15669 4.86897C0.847508 5.66427 0.636382 6.57388 0.575745 7.90577C0.514108 9.23975 0.5 9.66623 0.5 13.0638C0.5 16.4615 0.514108 16.8879 0.575745 18.2219C0.636382 19.5539 0.847508 20.4634 1.15669 21.2587C1.47599 22.0814 1.90334 22.7801 2.59936 23.475C3.29538 24.1699 3.99209 24.5978 4.81499 24.9181C5.61106 25.2274 6.51941 25.4385 7.85091 25.4992C9.18521 25.5598 9.61086 25.575 13.0075 25.575C16.4041 25.575 16.8305 25.5608 18.1641 25.4992C19.4957 25.4385 20.4049 25.2274 21.2 24.9181C22.0224 24.5978 22.7195 24.1702 23.4156 23.475C24.1118 22.7798 24.5381 22.0814 24.8583 21.2587C25.1675 20.4634 25.3796 19.5538 25.4393 18.2219C25.4999 16.8869 25.514 16.4615 25.514 13.0638C25.514 9.66623 25.4999 9.23975 25.4393 7.90577C25.3786 6.57378 25.1675 5.66377 24.8583 4.86897C24.5381 4.04634 24.1107 3.34902 23.4156 2.6527C22.7206 1.95638 22.0224 1.529 21.201 1.20962C20.4049 0.900343 19.4956 0.688155 18.1651 0.628502C16.8315 0.567848 16.4051 0.552734 13.0085 0.552734C9.61186 0.552734 9.18521 0.566847 7.85091 0.628502Z" fill="white"/>
</svg>
